<svg width="180" height="180" xmlns="http://www.w3.org/2000/svg">
 <style type="text/css">.st0{fill:#00A1DF;}</style>

 <g>
  <title>background</title>
  <rect fill="none" id="canvas_background" height="182" width="182" y="-1" x="-1"/>
 </g>
 <g>
  <title>Layer 1</title>
  <g id="svg_1">
   <g id="svg_2">
    <g id="svg_3">
     <path id="svg_4" d="m89.3,172c-44.8,0 -81.1,-36.3 -81.1,-81.1c-0.1,-44.8 36.3,-81.2 81.1,-81.2c44.8,0 81.1,36.3 81.1,81.1s-36.3,81.2 -81.1,81.2l0,0zm-0.1,-170.2c-49,0 -88.9,39.7 -88.9,88.5c0,48.8 39.9,88.5 88.9,88.5s88.9,-39.7 88.9,-88.5c0.1,-48.8 -39.8,-88.5 -88.9,-88.5l0,0z" class="st0"/>
    </g>
   </g>
   <path id="svg_5" d="m66.7,130.1c-13.4,-6.3 -22.7,-20.5 -22.7,-37c0,-8.7 2.6,-16.8 7,-23.3l29.2,43.6l17.7,0l29.2,-43.6c4.4,6.6 7,14.7 7,23.3c0,15.4 -8.1,28.7 -20,35.6l5.6,21.6c21.5,-11.1 36.1,-33.4 36.1,-59.2c0,-24.4 -13.1,-45.6 -32.6,-57.2l-34,52.4l-33.6,-52.6c-19.7,11.6 -33,33 -33,57.4c0,26.7 15.7,49.8 38.4,60.3l5.7,-21.3l0,0z" class="st0"/>
  </g>
 </g>
</svg>